<?xml version="1.0" encoding="utf-8"?>
<svg viewBox="0 0 607 492" xmlns="http://www.w3.org/2000/svg">
  <defs>
    <style>
		tspan { white-space:pre }
		.shp0 { fill: #2f2e41 } 
		.shp1 { fill: #3f3d56 } 
		.shp2 { fill: #ffffff } 
		.shp3 { fill: #6c63ff } 
		.shp4 { fill: #e6e6e6 } 
	</style>
  </defs>
  <path id="Layer" class="shp0" d="M588.21 476.96L27.79 476.96C25.32 476.96 22.88 476.48 20.6 475.53C18.32 474.59 16.25 473.2 14.5 471.46C12.76 469.71 11.37 467.64 10.43 465.36C9.49 463.08 9 460.64 9 458.17L9 458.17C212.15 434.56 411.48 434.56 607 458.17L607 458.17C607 460.64 606.51 463.08 605.57 465.36C604.63 467.64 603.24 469.71 601.5 471.46C599.75 473.2 597.68 474.59 595.4 475.53C593.12 476.48 590.68 476.96 588.21 476.96Z"/>
  <path id="Layer" class="shp1" d="M607 459.28L9 458.17L78.31 341.56L78.64 341L78.64 84C78.64 80.88 79.25 77.79 80.45 74.91C81.64 72.02 83.39 69.4 85.59 67.2C87.8 64.99 90.42 63.24 93.3 62.05C96.18 60.86 99.27 60.24 102.39 60.24L510.29 60.24C513.41 60.24 516.5 60.86 519.38 62.05C522.26 63.24 524.88 64.99 527.09 67.2C529.3 69.4 531.04 72.02 532.24 74.91C533.43 77.79 534.05 80.88 534.05 84L534.05 342.77L607 459.28Z"/>
  <path id="Layer" class="shp2" d="M101.85 76.82C100.83 76.82 99.83 77.02 98.89 77.41C97.95 77.8 97.1 78.37 96.38 79.09C95.66 79.81 95.09 80.66 94.7 81.6C94.31 82.54 94.11 83.54 94.11 84.56L94.11 318.9C94.11 319.91 94.31 320.92 94.7 321.86C95.09 322.79 95.66 323.65 96.38 324.37C97.1 325.08 97.95 325.65 98.89 326.04C99.83 326.43 100.83 326.63 101.85 326.63L514.15 326.63C515.17 326.63 516.17 326.43 517.11 326.04C518.05 325.65 518.9 325.08 519.62 324.37C520.34 323.65 520.91 322.79 521.3 321.86C521.69 320.92 521.89 319.91 521.89 318.9L521.89 84.56C521.89 83.54 521.69 82.54 521.3 81.6C520.91 80.66 520.34 79.81 519.62 79.09C518.9 78.37 518.05 77.8 517.11 77.41C516.17 77.02 515.17 76.82 514.15 76.82L101.85 76.82Z"/>
  <path id="Layer" class="shp0" d="M103.58 357.58C103.26 357.58 102.95 357.63 102.65 357.72C102.34 357.81 102.06 357.94 101.79 358.11C101.52 358.28 101.28 358.49 101.08 358.72C100.87 358.96 100.7 359.23 100.57 359.51L79.21 405.94C78.98 406.44 78.88 407 78.91 407.55C78.95 408.11 79.13 408.65 79.43 409.11C79.73 409.58 80.14 409.97 80.63 410.23C81.12 410.5 81.67 410.64 82.22 410.64L531.31 410.64C531.88 410.64 532.44 410.5 532.93 410.22C533.42 409.95 533.84 409.55 534.13 409.07C534.43 408.59 534.6 408.04 534.63 407.47C534.65 406.91 534.53 406.35 534.28 405.84L511.07 359.42C510.93 359.14 510.76 358.89 510.55 358.66C510.34 358.43 510.11 358.24 509.85 358.08C509.59 357.92 509.3 357.79 509.01 357.71C508.71 357.63 508.41 357.58 508.1 357.58L103.58 357.58Z"/>
  <path id="Layer" class="shp2" d="M306.34 72.95C303.59 72.95 301.37 70.73 301.37 67.98C301.37 65.23 303.59 63.01 306.34 63.01C309.09 63.01 311.32 65.23 311.32 67.98C311.32 70.73 309.09 72.95 306.34 72.95Z"/>
  <path id="Layer" class="shp0" d="M262.2 419.48C261.84 419.48 261.48 419.54 261.14 419.66C260.79 419.78 260.47 419.95 260.18 420.17C259.9 420.39 259.65 420.66 259.45 420.96C259.24 421.26 259.09 421.59 259 421.94L253.64 441.83C253.51 442.33 253.49 442.84 253.59 443.34C253.69 443.84 253.9 444.31 254.21 444.71C254.52 445.12 254.92 445.45 255.38 445.67C255.83 445.9 256.33 446.01 256.84 446.01L358.72 446.01C359.25 446.01 359.77 445.89 360.24 445.64C360.71 445.4 361.11 445.05 361.42 444.62C361.72 444.19 361.92 443.69 362 443.17C362.07 442.65 362.02 442.11 361.85 441.61L354.96 421.72C354.85 421.39 354.69 421.09 354.48 420.81C354.28 420.54 354.03 420.3 353.75 420.1C353.47 419.9 353.16 419.75 352.84 419.64C352.51 419.54 352.17 419.48 351.83 419.48L262.2 419.48Z"/>
  <path id="Layer" class="shp0" d="M534.05 337.13L534.05 341.56L78.31 341.56L78.65 341L78.65 337.13L534.05 337.13L534.05 337.13Z"/>
  <path id="Layer" class="shp3" d="M521.33 154.75C478.55 154.75 443.96 120.16 443.96 77.38C443.96 34.59 478.55 0 521.33 0C564.12 0 598.71 34.59 598.71 77.38C598.71 120.16 564.12 154.75 521.33 154.75Z" style="fill: rgb(0, 153, 204);"/>
  <path id="Layer" fill-rule="evenodd" class="shp2" d="M489.28 111.09C488.7 111.09 488.12 110.97 487.59 110.75C487.05 110.53 486.56 110.2 486.15 109.79C485.74 109.38 485.42 108.89 485.2 108.36C484.97 107.82 484.86 107.25 484.86 106.67L484.86 67.98C484.86 67.4 484.97 66.82 485.2 66.29C485.42 65.75 485.74 65.27 486.15 64.85C486.56 64.44 487.05 64.12 487.59 63.9C488.12 63.67 488.7 63.56 489.28 63.56L553.39 63.56C553.97 63.56 554.55 63.67 555.08 63.9C555.62 64.12 556.1 64.44 556.52 64.85C556.93 65.27 557.25 65.75 557.47 66.29C557.7 66.82 557.81 67.4 557.81 67.98L557.81 106.67C557.81 107.25 557.7 107.82 557.47 108.36C557.25 108.89 556.93 109.38 556.52 109.79C556.1 110.2 555.62 110.53 555.08 110.75C554.55 110.97 553.97 111.09 553.39 111.09L489.28 111.09ZM489.28 67.98L489.28 106.67L553.39 106.67L553.39 67.98L489.28 67.98Z"/>
  <path id="Layer" fill-rule="evenodd" class="shp2" d="M541.23 67.98L501.44 67.98L501.44 50.29C501.44 37.48 509.81 28.19 521.33 28.19C532.86 28.19 541.23 37.48 541.23 50.29L541.23 67.98ZM505.86 63.56L536.81 63.56L536.81 50.29C536.81 39.88 530.45 32.61 521.33 32.61C512.22 32.61 505.86 39.88 505.86 50.29L505.86 63.56Z"/>
  <path id="Layer" class="shp2" d="M521.33 90.64C518.89 90.64 516.91 88.66 516.91 86.22C516.91 83.77 518.89 81.8 521.33 81.8C523.78 81.8 525.76 83.77 525.76 86.22C525.76 88.66 523.78 90.64 521.33 90.64Z"/>
  <path id="Layer" fill-rule="evenodd" class="shp4" d="M467.32 247.15L148.68 247.15C147.91 247.15 147.14 247 146.42 246.7C145.71 246.4 145.06 245.97 144.51 245.42C143.96 244.87 143.53 244.22 143.23 243.51C142.93 242.79 142.78 242.02 142.78 241.25L142.78 162.21C142.78 161.43 142.93 160.67 143.23 159.95C143.53 159.24 143.96 158.59 144.51 158.04C145.06 157.49 145.71 157.05 146.42 156.76C147.14 156.46 147.91 156.31 148.68 156.31L467.32 156.31C468.09 156.31 468.86 156.46 469.58 156.76C470.29 157.05 470.94 157.49 471.49 158.04C472.04 158.59 472.47 159.24 472.77 159.95C473.07 160.67 473.22 161.43 473.22 162.21L473.22 241.25C473.22 242.02 473.07 242.79 472.77 243.51C472.47 244.22 472.04 244.87 471.49 245.42C470.94 245.97 470.29 246.4 469.58 246.7C468.86 247 468.09 247.15 467.32 247.15ZM148.68 158.67C148.22 158.67 147.76 158.76 147.33 158.94C146.9 159.12 146.51 159.38 146.18 159.71C145.85 160.03 145.59 160.42 145.41 160.85C145.23 161.28 145.14 161.74 145.14 162.21L145.14 241.25C145.14 241.71 145.23 242.17 145.41 242.6C145.59 243.03 145.85 243.42 146.18 243.75C146.51 244.08 146.9 244.34 147.33 244.52C147.76 244.7 148.22 244.79 148.68 244.79L467.32 244.79C467.78 244.79 468.24 244.7 468.67 244.52C469.1 244.34 469.49 244.08 469.82 243.75C470.15 243.42 470.41 243.03 470.59 242.6C470.77 242.17 470.86 241.71 470.86 241.25L470.86 162.21C470.86 161.74 470.77 161.28 470.59 160.85C470.41 160.42 470.15 160.03 469.82 159.71C469.49 159.38 469.1 159.12 468.67 158.94C468.24 158.76 467.78 158.67 467.32 158.67L148.68 158.67Z"/>
  <path id="Layer" class="shp4" d="M198.19 222.73C184.9 222.73 174.15 211.99 174.15 198.7C174.15 185.4 184.9 174.66 198.19 174.66C211.48 174.66 222.23 185.4 222.23 198.7C222.23 211.99 211.48 222.73 198.19 222.73Z"/>
  <path id="Layer" class="shp4" d="M253.7 182.67C252.64 182.67 251.62 183.09 250.87 183.84C250.11 184.59 249.69 185.61 249.69 186.68C249.69 187.74 250.11 188.76 250.87 189.51C251.62 190.26 252.64 190.69 253.7 190.68L442.56 190.68C443.62 190.68 444.64 190.26 445.39 189.51C446.14 188.76 446.57 187.74 446.57 186.68C446.57 185.61 446.14 184.6 445.39 183.84C444.64 183.09 443.62 182.67 442.56 182.67L253.7 182.67Z"/>
  <path id="Layer" class="shp4" d="M253.7 206.71C252.64 206.71 251.62 207.13 250.87 207.88C250.12 208.63 249.7 209.65 249.7 210.71C249.7 211.78 250.12 212.8 250.87 213.55C251.62 214.3 252.64 214.72 253.7 214.72L334.97 214.72C336.03 214.72 337.05 214.3 337.8 213.55C338.55 212.8 338.98 211.78 338.98 210.71C338.98 209.65 338.55 208.63 337.8 207.88C337.05 207.13 336.03 206.71 334.97 206.71L253.7 206.71Z"/>
</svg>